<?xml version="1.0" encoding="utf-8"?>
<!-- Generator: Adobe Illustrator 23.0.2, SVG Export Plug-In . SVG Version: 6.00 Build 0)  -->
<svg version="1.1" id="Layer_1" xmlns="http://www.w3.org/2000/svg" xmlns:xlink="http://www.w3.org/1999/xlink" x="0px" y="0px"
	 viewBox="0 0 1280 1024" style="enable-background:new 0 0 1280 1024;" xml:space="preserve">
<style type="text/css">
	.st0{stroke:#000000;stroke-miterlimit:10;}
	.st1{fill:#FFFFFF;}
</style>
<rect class="st0" width="1280" height="1024"/>
<title>hohoho</title>
<path class="st1" d="M171.7,300.4c10.5-1.6,19.1,1,25.8,7.7c5.4,5.3,8.7,12.1,10,20.6c2.2,15.2-0.3,33.2-7.6,54.1
	c-6.4,17.9-15.3,34.7-26.7,49.9c-7.5,9.9-13.8,15.2-18.8,15.9c-3.3,0.5-6.6-0.7-9.9-3.6c-2.3-1.9-3.8-4.6-4.2-7.5
	c-0.8-5.5,3-12.4,11.5-20.9c12-12,21.1-24.5,27.3-37.6c9.2-18.9,12.9-34.3,11.2-46.2c-0.7-4.8-2.3-8.3-4.8-10.3
	c-2.5-2-5.8-2.7-10-2.1c-8.6,1.3-19.9,9.3-33.8,24.1c-15.9,16.7-32.1,38.7-48.5,65.9C72.4,445,57.4,478.2,48.6,510
	c-9.2,33-12.2,60.4-9,82.3c1.6,10.5,6,18.9,13.1,25.4c7.9,7.3,16.8,10.2,26.5,8.8c16.9-2.5,36.2-18.8,58-48.8
	c6.5-9.1,14.1-22,22.8-38.8c5.8-10.7,9.4-18.3,10.8-22.7c1.7-4.9,4.1-7.5,7.2-8c3.4-0.5,5.4,0.9,5.9,4.2c1,7-5.4,24.1-19.3,51.2
	c-11.5,22.6-25.1,41.7-40.7,57.3c-17.6,17.4-35.1,27.4-52.6,30c-18.3,2.7-33.6-3.4-46.1-18.4c-8-9.5-12.9-21-14.9-34.5
	c-5-33.8,4.7-78.7,29-134.9c20.7-47.8,44.2-87.3,70.5-118.5C132.5,317.9,153.1,303.1,171.7,300.4z"/>
<path class="st1" d="M268.9,554.6c-3.3,8.7-7.3,17.1-11.9,25.2c-8,13.7-16.9,21.2-26.6,22.6c-8.4,1.2-15.6-1.8-21.5-9.1
	c-3.9-5.1-6.4-11.2-7.1-17.6c-2.6-17.3,0.1-37.3,8-59.9c8.8-25.1,20.8-45.2,36.2-60.2c10.1-9.8,20.3-15.5,30.8-17
	c6.6-1,12.3,0.3,17.3,3.7c4.3,3.1,6.8,6.8,7.4,11.4c0.5,3.4-0.1,8.4-1.9,14.9c2.8,2.9,4.4,5.7,4.8,8.2c0.5,3.3-0.9,9-4.2,17.1
	c-3.4,8.3-6.4,19.2-9.1,32.5c-2.9,14.2-3.7,25.3-2.5,33.4c1,6.6,3.7,11.7,8.3,15.3c1.3,0.9,4.7,2.3,10.4,4c4.2,1.3,6.6,4.3,7.3,9
	c0.5,2.8-0.3,5.6-2.2,7.8c-2,2.3-4.7,3.8-7.8,4.3c-8.4,1.3-16.3-1.4-23.5-8c-5.9-5.3-9.5-12.6-10.9-21.9
	C269.8,567.2,269.3,561.9,268.9,554.6z M286.8,473.2c-1.9-2.7-4.4-5-7.2-6.7c-2.2-1.3-4.8-1.8-7.4-1.4
	c-11.9,1.8-23.3,14.1-34.1,36.9c-11.9,25.2-16.7,45.8-14.4,61.8c0.6,3.9,1.8,6.8,3.5,8.6c1.9,1.8,4.6,2.6,7.1,2.1
	c7.5-1.1,15.1-10.4,22.7-27.8c4.3-9.6,9.4-23.5,15.2-41.8c3.8-11.9,6.7-19.8,8.7-23.8C282.6,478.1,284.5,475.5,286.8,473.2z"/>
<path class="st1" d="M356.9,501.6c-2.9,12.9-5,23.2-6.2,31.1c-1.2,7.9-1.6,13.3-1.2,16.3c0.6,3.9,2.7,5.6,6.5,5
	c5.6-0.8,12.1-7.2,19.5-19.2c3.5-5.8,8.3-16,14.6-30.7c2.5-5.8,5.5-9,9.1-9.5c4.1-0.6,6.4,1,7,5c1,6.7-4.7,21.5-17.2,44.2
	c-13,23.8-26.3,36.7-40,38.7c-5.9,0.9-11.2-0.9-15.6-5.4c-3.3-3.4-5.4-7.8-5.9-12.5c-1.3-8.7-0.4-21.3,2.6-37.5
	c3-16.3,8.1-36.3,15.4-60c18.6-60.4,39.2-111,61.7-151.7c18-32.7,34.4-50.1,49.1-52.3c4.5-0.8,9,0.6,12.3,3.7
	c3.5,3,5.9,7.1,6.5,11.7c3.2,21.9-10.9,61.2-42.5,117.9c-14.2,25.3-31.8,51-52.8,77.3C374.1,480.7,366.5,490,356.9,501.6z
	 M368.1,461.9c28.4-32.6,52.3-72.1,71.7-118.4c10-24,14.5-39.6,13.5-46.8c-0.5-3.4-2.2-4.9-5.2-4.5c-8.6,1.3-21.7,20.7-39.3,58.3
	C394.1,381.4,380.5,418.5,368.1,461.9z"/>
<path class="st1" d="M473.8,420.4c2.5-0.4,5.1,0.3,7,2.1c1.4,1.3,2.3,3,2.6,4.9c0.4,2.8-1.2,7.8-4.7,15.1
	c-12.5,27.6-21.1,50-25.5,67.3c-4.9,17.9-8.9,36.1-11.9,54.5c-1.3,8.2-4.7,12.7-10,13.5c-3,0.5-6-0.5-8.1-2.7
	c-1.9-1.6-3.2-3.8-3.5-6.2c-0.7-4.7,2-21,8.1-49.1c4.7-22.1,14-47.1,27.8-75c4.4-9.1,7.8-15.3,10.2-18.5
	C468.2,422.8,470.9,420.9,473.8,420.4z M505.6,326.9c7-1,11.1,2,12.1,9.2c1,6.6-1.4,14.3-7.1,23.3c-5.4,8.6-11.2,13.4-17.3,14.3
	c-2.8,0.5-5.6-0.3-7.8-2.2c-2.2-1.8-3.6-4.3-3.9-7.1c-1.1-7.5,1.9-16.1,8.9-25.8C495.7,331.5,500.7,327.6,505.6,326.9z"/>
<path class="st1" d="M528,473.8c1.8-2.2,3.4-4.3,5-6.5c28-36.7,47.5-55.9,58.6-57.5c6.1-0.9,9.6,2,10.6,8.7
	c0.7,4.7-1.3,10.6-5.8,17.9c-24.7,39.3-35.1,72.2-31.2,98.8c1.3,8.7,5,16.9,10.7,23.6c2.7,3.3,4.2,5.9,4.5,8c0.3,1.9-0.4,3.8-2,5.8
	c-1.5,2.4-4,4-6.8,4.4c-6.4,0.9-12.4-2.3-18-9.8c-5.3-7-8.8-16-10.4-27c-3.1-21.1,1.4-45.7,13.6-73.6c-19.3,16.7-35.5,43.7-48.7,81
	c-3.5,9-7.9,13.8-13.2,14.6c-2.5,0.4-5.1-0.2-7-1.8c-2.6-1.9-4.2-4.8-4.5-8c-1.2-8.5,5.1-32,19.1-70.6c7.5-20.9,13.5-36.2,18.2-45.8
	c4.7-9.5,9.1-14.5,13.3-15.1c2.3-0.2,4.5,0.5,6.3,2c2.4,1.6,3.9,4.2,4.4,7c0.5,3.4-1,8.7-4.6,15.8
	C535.5,454.5,531.4,464.1,528,473.8z"/>
<path class="st1" d="M790.4,504.9c-10,8.4-18.1,14.7-24.2,18.9c-14,9.9-26.4,15.3-37.3,16.3c-12.7,1.2-23.9-4-33.4-15.7
	c-6.8-8.4-10.8-18.4-11.8-30.1c-3-32.4,7.6-71.5,31.9-117.3c22.6-42.3,49.8-79.4,81.7-111.4c26.1-26.2,49.3-40.3,69.6-42.2
	c10.2-1,19,2.6,26.2,10.6c5.6,6.3,8.9,14.3,9.5,22.7c2.6,27.4-8.2,57-32.2,88.9c-18.4,24.4-32.8,37.1-43.3,38.1
	c-2.6,0.1-5.2-0.6-7.3-2.2c-2.6-1.7-4.2-4.4-4.5-7.4c-0.4-3.9,2.6-9.1,9-15.4c16.4-16,29.5-32,39.3-48
	c15.3-24.8,22.3-43.9,21.1-57.4c-0.2-3.4-2-6.5-4.8-8.4c-2.8-1.8-6.2-2.6-9.5-2.2c-8.3,0.8-19,6.7-32.1,17.8
	c-27.3,23.3-53.5,54.9-78.5,94.7c-15.7,24.9-28.8,51.3-39.1,78.9c-8.6,23.5-12.2,42.4-10.9,56.7c0.6,5.8,3,11.2,6.9,15.5
	c5.5,6.3,12.2,9.1,20.1,8.4c11.2-1.1,24.4-8.2,39.7-21.6c19.1-16.7,32.6-29.9,40.6-39.7c6.7-8.2,11.9-12.5,15.7-12.9
	c2.6-0.3,5.1,0.6,6.9,2.5c2.5,2.6,4,6,4.2,9.6c0.4,4.4-1.7,10.5-6.4,18.2c-4.8,7.8-12.1,22-21.7,42.7
	c-11.6,24.9-21.5,50.4-29.8,76.6c-7.7,24-12.3,40.3-13.5,48.6c-1.1,7.1-2.6,12.2-4.5,15.4c-2.1,3.4-5.5,5.3-10.4,5.7
	c-4.1,0.4-7.4-0.7-9.8-3.4c-2.2-2.4-3.5-5.5-3.7-8.7c-1.2-13.4,4.4-37.2,16.9-71.6c2-5.4,8.5-21.3,19.6-47.5
	C782.7,523.6,786,515.6,790.4,504.9z"/>
<path class="st1" d="M916,386.7c2.6-0.3,5.1,0.6,6.9,2.5c1.3,1.4,2.1,3.1,2.4,5c0.3,2.8-1.6,7.8-5.5,14.8
	c-14,26.9-23.7,48.8-29.1,65.8c-5.8,17.7-10.7,35.6-14.6,53.8c-1.8,8.1-5.3,12.4-10.7,12.9c-3,0.4-5.9-0.8-7.9-3.1
	c-1.8-1.7-3-3.9-3.2-6.4c-0.4-4.7,3.1-20.9,10.7-48.6c5.9-21.8,16.5-46.3,31.7-73.4c4.9-8.9,8.6-14.9,11.2-18
	C910.3,388.8,913,387,916,386.7z M952.7,295c7.1-0.7,11,2.6,11.6,9.9c0.6,6.6-2.2,14.3-8.3,22.9c-5.9,8.3-11.9,12.8-18,13.4
	c-2.8,0.3-5.6-0.6-7.6-2.6c-2.1-1.9-3.4-4.5-3.5-7.3c-0.7-7.5,2.8-16,10.3-25.2C942.6,299.1,947.8,295.4,952.7,295z"/>
<path class="st1" d="M962.5,445.9c-3.6,12.7-6.2,23-7.8,30.7c-1.7,7.8-2.3,13.2-2.1,16.1c0.4,3.9,2.4,5.7,6.2,5.4
	c5.7-0.5,12.5-6.6,20.5-18.1c3.8-5.6,9.2-15.5,16.3-29.9c2.8-5.7,6-8.7,9.6-9c4.1-0.4,6.3,1.4,6.7,5.3c0.6,6.8-5.9,21.2-19.5,43.3
	c-14.2,23.1-28.2,35.3-42.1,36.5c-6,0.5-11.1-1.5-15.3-6.2c-3.1-3.6-4.9-8.1-5.3-12.8c-0.8-8.8,0.7-21.3,4.6-37.3
	s10.1-35.8,18.5-59.1c21.8-59.3,45-108.7,69.7-148.2c19.7-31.7,37-48.2,51.8-49.6c4.5-0.5,9,1.1,12.1,4.4c3.4,3.2,5.5,7.5,5.9,12.1
	c2.1,22-14.2,60.5-48.7,115.5c-15.5,24.5-34.4,49.2-56.9,74.4C980.8,426,972.7,434.8,962.5,445.9z M975.8,406.8
	c30.1-31.1,56.1-69.2,77.9-114.4c11.3-23.4,16.6-38.8,15.9-46c-0.3-3.5-2-5.1-5-4.8c-8.7,0.8-22.8,19.5-42.4,56.1
	C1006,327.8,990.5,364.2,975.8,406.8L975.8,406.8z"/>
<path class="st1" d="M1100.7,472.8c-3.7,8.5-8.2,16.7-13.2,24.6c-8.8,13.2-18,20.2-27.8,21.2c-8.5,0.8-15.5-2.6-21-10.2
	c-3.6-5.3-5.8-11.6-6.2-18c-1.6-17.5,2.1-37.2,11.1-59.4c10.1-24.6,23.2-44,39.3-58.2c10.6-9.2,21.1-14.3,31.7-15.3
	c6.6-0.6,12.3,0.9,17.1,4.6c4.1,3.3,6.4,7.2,6.8,11.7c0.3,3.5-0.6,8.4-2.7,14.8c2.7,3.1,4.1,5.9,4.4,8.4c0.3,3.3-1.4,8.9-5.1,16.9
	c-3.8,8.1-7.4,18.8-10.8,32c-3.6,14-5,25.1-4.3,33.3c0.6,6.6,3.1,11.8,7.4,15.7c1.2,1,4.6,2.5,10.2,4.5c4.1,1.5,6.4,4.6,6.8,9.4
	c0.3,2.8-0.6,5.6-2.6,7.6c-2.1,2.2-4.9,3.6-8,3.8c-8.5,0.8-16.2-2.3-23-9.3c-5.6-5.7-8.8-13.1-9.7-22.4
	C1100.9,485.3,1100.8,480.1,1100.7,472.8z M1123,392.4c-1.8-2.8-4.1-5.2-6.8-7.1c-2.2-1.4-4.7-2-7.3-1.8c-12,1.1-24,12.8-36,35
	c-13.3,24.6-19.1,44.9-17.6,60.9c0.4,3.9,1.4,6.9,3.1,8.8c1.8,1.9,4.4,2.8,7,2.4c7.6-0.7,15.6-9.6,24.2-26.5
	c4.8-9.3,10.6-23,17.4-40.9c4.5-11.7,7.8-19.5,10-23.3C1118.5,397.1,1120.6,394.6,1123,392.4L1123,392.4z"/>
<path class="st1" d="M1196.2,421.5c1.9-2.1,3.7-4.2,5.4-6.2c29.9-35.2,50.4-53.3,61.6-54.3c6.1-0.6,9.5,2.5,10.2,9.3
	c0.4,4.7-1.8,10.6-6.7,17.5c-26.8,37.9-38.9,70.2-36.4,97c0.8,8.8,4.1,17.1,9.4,24.1c2.5,3.4,3.9,6.1,4.1,8.2
	c0.2,1.9-0.6,3.8-2.3,5.7c-1.6,2.3-4.2,3.7-7,4c-6.4,0.6-12.3-3-17.4-10.8c-5-7.3-8-16.5-9-27.5c-2-21.2,3.8-45.5,17.5-72.8
	c-20.1,15.7-37.8,41.8-52.9,78.3c-3.9,8.8-8.6,13.4-13.9,13.9c-2.5,0.3-5-0.5-6.9-2.2c-2.4-2.1-3.9-5-4.1-8.2
	c-0.8-8.5,6.8-31.7,22.8-69.5c8.6-20.5,15.4-35.4,20.6-44.8c5.2-9.2,9.9-14,14.1-14.4c2.3-0.1,4.5,0.7,6.2,2.3
	c2.3,1.8,3.7,4.4,4,7.3c0.3,3.5-1.5,8.6-5.5,15.5C1204.7,402.8,1200.1,412,1196.2,421.5z"/>
<path class="st1" d="M224.9,857.6c1,0.7,2.3,1.2,3.7,1.6c1.4,0.4,2.9,0.6,4.3,0.6c2.6,0,4.6-0.6,6-1.7c1.4-1.1,2.2-2.7,2.2-4.7
	c0-1.4-0.4-2.7-1.2-3.8c-0.8-1.1-2.2-2.4-4.2-3.7c-2.2-1.5-3.8-3-4.7-4.3c-0.9-1.3-1.3-2.9-1.3-4.6c0-2.6,1-4.7,3.1-6.3
	c2.1-1.6,4.6-2.5,7.7-2.5c2.3,0,4.6,0.4,6.9,1.2l-0.5,2.3c-1.8-1-4.1-1.5-6.7-1.5c-2.4,0-4.4,0.6-5.9,1.8c-1.5,1.2-2.2,2.8-2.2,4.8
	c0,1.5,0.4,2.8,1.1,3.8s2.1,2.3,4.2,3.8c2.3,1.6,3.9,3,4.8,4.3c0.9,1.3,1.4,2.8,1.4,4.5c0,2.7-1,4.8-2.9,6.4s-4.6,2.3-7.8,2.3
	c-1.5,0-3-0.2-4.5-0.5c-1.5-0.4-2.7-0.8-3.8-1.4L224.9,857.6z"/>
<path class="st1" d="M258.1,861.9c-2.7,0-4.7-0.8-6.3-2.4c-1.5-1.6-2.3-3.8-2.3-6.6c0-2.8,0.6-5.4,1.7-7.8c1.1-2.4,2.7-4.3,4.7-5.6
	c2-1.3,4.1-2,6.5-2c2.7,0,4.8,0.8,6.3,2.4c1.5,1.6,2.2,3.8,2.2,6.5c0,2.9-0.6,5.5-1.7,7.9c-1.1,2.4-2.6,4.2-4.6,5.6
	C262.6,861.3,260.4,861.9,258.1,861.9z M258.3,860c1.9,0,3.6-0.6,5.2-1.7c1.6-1.1,2.8-2.7,3.8-4.8c0.9-2,1.4-4.3,1.4-6.8
	c0-2.4-0.6-4.2-1.7-5.4c-1.1-1.2-2.7-1.8-4.8-1.8c-1.8,0-3.6,0.6-5.2,1.7c-1.6,1.1-2.9,2.7-3.8,4.8c-0.9,2.1-1.4,4.3-1.4,6.8
	c0,2.3,0.6,4.1,1.7,5.3C254.7,859.4,256.3,860,258.3,860z"/>
<path class="st1" d="M279,840h-4.4l0.5-1.9h4.4l1-4.4c0.5-2.5,1.5-4.3,2.9-5.5c1.4-1.2,3.1-1.8,5.2-1.8c1,0,1.9,0.1,2.7,0.4l-0.5,2
	c-0.5-0.3-1.3-0.5-2.5-0.5c-3,0-4.9,2-5.8,6l-0.8,3.8h6.4l-0.5,1.9h-6.4l-6.5,29h-2.2L279,840z"/>
<path class="st1" d="M292.1,840h-4.4l0.5-1.9h4.4l1.4-6l2.4-0.7l-1.5,6.7h6.5l-0.5,1.9h-6.4l-3.3,14.6c-0.3,1.4-0.5,2.5-0.5,3.1
	c0,0.7,0.2,1.3,0.5,1.6c0.3,0.4,0.9,0.6,1.6,0.6c0.7,0,2-0.4,3.9-1.2l-0.5,2c-0.6,0.3-1.3,0.6-2,0.8c-0.8,0.2-1.4,0.3-1.8,0.3
	c-2.6,0-3.8-1.3-3.8-3.9c0-1,0.2-2.1,0.5-3.3L292.1,840z"/>
<path class="st1" d="M303.2,838.1h2.3l1.6,18.8v0.3v0.3l-0.1,1.2h0.2c0.1-0.6,0.4-1.2,0.8-2l10.3-18.5h1.5l1.4,19.2l-0.1,1.3h0.2
	l0.4-1l0.5-1l9.9-18.5h2.4l-12.8,23.2h-1.9l-1.5-17.4l0-1.2l0.1-0.9h-0.1l-0.2,0.4l-10.6,19.1h-2L303.2,838.1z"/>
<path class="st1" d="M350.3,861.4c0.1-1.7,0.4-4.2,1-7.4h-0.1c-1.5,2.6-3,4.6-4.6,6c-1.6,1.4-3.3,2.1-5.2,2.1c-2.2,0-3.8-0.7-5-2.2
	s-1.7-3.5-1.7-6.1c0-3,0.6-5.8,1.9-8.2c1.3-2.5,3.1-4.4,5.3-5.8c2.3-1.4,4.7-2.1,7.5-2.1c2.1,0,4.5,0.3,7.4,0.8l-3.2,14.6
	c-0.2,1.1-0.5,2.6-0.7,4.3c-0.2,1.7-0.4,3.1-0.4,4H350.3z M354.3,840c-1.7-0.3-3.4-0.5-5.1-0.5c-2.3,0-4.3,0.6-6.2,1.8
	c-1.9,1.2-3.3,2.8-4.4,5c-1.1,2.1-1.6,4.5-1.6,7.2c0,4.4,1.6,6.6,4.9,6.6c1.3,0,2.7-0.6,4.1-1.8c1.5-1.2,2.8-2.9,4.1-5
	c1.3-2.1,2.2-4.3,2.7-6.5L354.3,840z"/>
<path class="st1" d="M364.4,838.1h2.2l-0.9,5.5h0.1c1.1-2.1,2.2-3.6,3.4-4.6c1.2-1,2.6-1.5,4.3-1.5c0.9,0,1.8,0.2,2.6,0.6l-0.4,2.1
	h-0.1c-0.8-0.5-1.7-0.8-2.5-0.8c-1.8,0-3.5,1.1-5.2,3.3c-1.7,2.2-3,5-3.7,8.4l-2.3,10.3h-2.2l3.4-15.1
	C363.7,843,364.2,840.3,364.4,838.1z"/>
<path class="st1" d="M378.3,852.4c0,2.4,0.6,4.2,1.9,5.6c1.3,1.4,3.1,2,5.4,2c2,0,4.3-0.6,6.7-1.9l-0.4,2.2
	c-2.1,1.1-4.3,1.6-6.6,1.6c-2.9,0-5.2-0.9-6.8-2.6c-1.6-1.7-2.4-4.1-2.4-7.2c0-2.7,0.6-5.2,1.8-7.4c1.2-2.2,2.8-4,4.8-5.3
	c2-1.3,4.1-1.9,6.3-1.9c2.1,0,3.8,0.5,5,1.5c1.3,1,1.9,2.4,1.9,4.1c0,2.7-1.4,4.6-4.1,5.9c-2.7,1.2-7.2,1.9-13.3,2L378.3,852.4z
	 M378.7,849.1c5.1,0,8.8-0.4,11.2-1.3c2.4-0.9,3.6-2.4,3.6-4.4c0-2.6-1.7-3.9-5-3.9c-2.4,0-4.4,0.9-6.3,2.7
	C380.5,843.9,379.3,846.3,378.7,849.1z"/>
<path class="st1" d="M419.3,828.8h7.9c4.8,0,8.4,1.1,11,3.4c2.5,2.3,3.8,5.5,3.8,9.9c0,3.9-0.8,7.4-2.5,10.3c-1.7,2.9-4,5.2-7.1,6.7
	c-3.1,1.5-6.7,2.3-10.7,2.3H412L419.3,828.8z M421.7,859.3c5.6,0,10-1.5,13.1-4.5c3.2-3,4.7-7.2,4.7-12.6c0-7.6-4.3-11.4-12.8-11.4
	h-5.6l-6.3,28.4H421.7z"/>
<path class="st1" d="M447.4,852.4c0,2.4,0.6,4.2,1.9,5.6c1.3,1.4,3.1,2,5.4,2c2,0,4.3-0.6,6.7-1.9l-0.4,2.2
	c-2.1,1.1-4.3,1.6-6.6,1.6c-2.9,0-5.2-0.9-6.8-2.6c-1.6-1.7-2.4-4.1-2.4-7.2c0-2.7,0.6-5.2,1.8-7.4c1.2-2.2,2.8-4,4.8-5.3
	c2-1.3,4.1-1.9,6.3-1.9c2.1,0,3.8,0.5,5,1.5c1.3,1,1.9,2.4,1.9,4.1c0,2.7-1.4,4.6-4.1,5.9c-2.7,1.2-7.2,1.9-13.3,2L447.4,852.4z
	 M447.7,849.1c5.1,0,8.8-0.4,11.2-1.3c2.4-0.9,3.6-2.4,3.6-4.4c0-2.6-1.7-3.9-5-3.9c-2.4,0-4.4,0.9-6.3,2.7
	C449.5,843.9,448.3,846.3,447.7,849.1z"/>
<path class="st1" d="M469.1,838.1h2.2l3.2,18.4c0.2,0.8,0.2,1.6,0.2,2.4h0.1l0.7-1.5l11.8-19.3h2.5l-14.6,23.2h-2L469.1,838.1z"/>
<path class="st1" d="M492.1,852.4c0,2.4,0.6,4.2,1.9,5.6c1.3,1.4,3.1,2,5.4,2c2,0,4.3-0.6,6.7-1.9l-0.4,2.2
	c-2.1,1.1-4.3,1.6-6.6,1.6c-2.9,0-5.2-0.9-6.8-2.6c-1.6-1.7-2.4-4.1-2.4-7.2c0-2.7,0.6-5.2,1.8-7.4c1.2-2.2,2.8-4,4.8-5.3
	c2-1.3,4.1-1.9,6.3-1.9c2.1,0,3.8,0.5,5,1.5c1.3,1,1.9,2.4,1.9,4.1c0,2.7-1.4,4.6-4.1,5.9c-2.7,1.2-7.2,1.9-13.3,2L492.1,852.4z
	 M492.5,849.1c5.1,0,8.8-0.4,11.2-1.3c2.4-0.9,3.6-2.4,3.6-4.4c0-2.6-1.7-3.9-5-3.9c-2.4,0-4.4,0.9-6.3,2.7
	C494.3,843.9,493.1,846.3,492.5,849.1z"/>
<path class="st1" d="M519.4,827h2.2l-6.1,27.7c-0.4,1.8-0.6,3.1-0.6,3.9c0,0.9,0.5,1.4,1.5,1.4c0.7,0,1.4-0.1,2-0.4l-0.4,1.7
	c-0.8,0.3-1.6,0.5-2.3,0.5c-2,0-3-1-3-3.1c0-0.7,0.1-1.6,0.3-2.6C513.1,855,515.3,845.3,519.4,827z"/>
<path class="st1" d="M531.2,861.9c-2.7,0-4.7-0.8-6.3-2.4c-1.5-1.6-2.3-3.8-2.3-6.6c0-2.8,0.6-5.4,1.7-7.8c1.1-2.4,2.7-4.3,4.7-5.6
	c2-1.3,4.1-2,6.5-2c2.7,0,4.8,0.8,6.3,2.4c1.5,1.6,2.2,3.8,2.2,6.5c0,2.9-0.6,5.5-1.7,7.9c-1.1,2.4-2.6,4.2-4.6,5.6
	C535.8,861.3,533.6,861.9,531.2,861.9z M531.5,860c1.9,0,3.6-0.6,5.2-1.7c1.6-1.1,2.8-2.7,3.8-4.8c0.9-2,1.4-4.3,1.4-6.8
	c0-2.4-0.6-4.2-1.7-5.4c-1.1-1.2-2.7-1.8-4.8-1.8c-1.8,0-3.6,0.6-5.2,1.7c-1.6,1.1-2.9,2.7-3.8,4.8c-0.9,2.1-1.4,4.3-1.4,6.8
	c0,2.3,0.6,4.1,1.7,5.3C527.9,859.4,529.5,860,531.5,860z"/>
<path class="st1" d="M551.7,838.1h2.2c-0.1,1.1-0.2,2.5-0.5,4.1c-0.2,1.6-0.4,2.7-0.5,3.3h0.1c1.5-2.6,3-4.6,4.7-6s3.4-2,5.2-2
	c2.2,0,3.8,0.7,4.9,2.1c1.1,1.4,1.7,3.5,1.7,6.2c0,3-0.6,5.8-1.9,8.2c-1.3,2.4-3.1,4.4-5.3,5.8c-2.3,1.4-4.7,2.1-7.4,2.1
	c-1.7,0-3.4-0.3-5.1-0.9l-2.5,11.3H545l5.9-26.8c0.1-0.6,0.3-1.8,0.5-3.5C551.6,840.2,551.7,838.9,551.7,838.1z M550.1,859
	c1.4,0.7,3.1,1,5.1,1c2.2,0,4.3-0.6,6.1-1.8c1.9-1.2,3.3-2.8,4.4-5c1-2.1,1.6-4.5,1.6-7c0-2.2-0.4-3.9-1.2-5.1
	c-0.8-1.1-2-1.7-3.7-1.7c-1.2,0-2.6,0.6-4.2,1.9c-1.6,1.3-2.9,2.9-4.2,5c-1.2,2.1-2.1,4.2-2.5,6.4L550.1,859z"/>
<path class="st1" d="M575.7,852.4c0,2.4,0.6,4.2,1.9,5.6c1.3,1.4,3.1,2,5.4,2c2,0,4.3-0.6,6.7-1.9l-0.4,2.2
	c-2.1,1.1-4.3,1.6-6.6,1.6c-2.9,0-5.2-0.9-6.8-2.6c-1.6-1.7-2.4-4.1-2.4-7.2c0-2.7,0.6-5.2,1.8-7.4c1.2-2.2,2.8-4,4.8-5.3
	c2-1.3,4.1-1.9,6.3-1.9c2.1,0,3.8,0.5,5,1.5c1.3,1,1.9,2.4,1.9,4.1c0,2.7-1.4,4.6-4.1,5.9s-7.2,1.9-13.3,2L575.7,852.4z M576,849.1
	c5.1,0,8.8-0.4,11.2-1.3c2.4-0.9,3.6-2.4,3.6-4.4c0-2.6-1.7-3.9-5-3.9c-2.4,0-4.4,0.9-6.3,2.7C577.8,843.9,576.6,846.3,576,849.1z"
	/>
<path class="st1" d="M600.4,838.1h2.2l-0.9,5.5h0.1c1.1-2.1,2.2-3.6,3.4-4.6c1.2-1,2.6-1.5,4.3-1.5c0.9,0,1.8,0.2,2.6,0.6l-0.4,2.1
	h-0.1c-0.8-0.5-1.7-0.8-2.5-0.8c-1.8,0-3.5,1.1-5.2,3.3c-1.7,2.2-3,5-3.7,8.4l-2.3,10.3h-2.2l3.4-15.1
	C599.7,843,600.2,840.3,600.4,838.1z"/>
<path class="st1" d="M226.8,923.4c-0.5,0-1-0.2-1.4-0.5c-0.4-0.4-0.5-0.8-0.5-1.3c0-0.5,0.2-1,0.5-1.3s0.8-0.5,1.4-0.5
	c0.5,0,1,0.2,1.4,0.5c0.4,0.3,0.6,0.8,0.6,1.3c0,0.5-0.2,0.9-0.6,1.3C227.8,923.2,227.3,923.4,226.8,923.4z"/>
<path class="st1" d="M237.6,923.4c-0.5,0-1-0.2-1.4-0.5c-0.4-0.4-0.5-0.8-0.5-1.3c0-0.5,0.2-1,0.5-1.3c0.4-0.3,0.8-0.5,1.4-0.5
	c0.5,0,1,0.2,1.4,0.5c0.4,0.3,0.6,0.8,0.6,1.3c0,0.5-0.2,0.9-0.6,1.3C238.6,923.2,238.2,923.4,237.6,923.4z"/>
<path class="st1" d="M248.4,923.4c-0.5,0-1-0.2-1.4-0.5c-0.4-0.4-0.5-0.8-0.5-1.3c0-0.5,0.2-1,0.5-1.3s0.8-0.5,1.4-0.5
	c0.5,0,1,0.2,1.4,0.5c0.4,0.3,0.6,0.8,0.6,1.3c0,0.5-0.2,0.9-0.6,1.3C249.4,923.2,249,923.4,248.4,923.4z"/>
<path class="st1" d="M273.4,923c0.1-1.7,0.4-4.2,1-7.4h-0.1c-1.5,2.6-3,4.6-4.6,6c-1.6,1.4-3.3,2.1-5.2,2.1c-2.2,0-3.8-0.7-5-2.2
	c-1.2-1.4-1.7-3.5-1.7-6.1c0-3,0.6-5.8,1.9-8.2c1.3-2.5,3.1-4.4,5.3-5.8c2.3-1.4,4.7-2.1,7.5-2.1c2.1,0,4.5,0.3,7.4,0.8l-3.2,14.6
	c-0.2,1.1-0.5,2.6-0.7,4.3c-0.2,1.7-0.4,3.1-0.4,4H273.4z M277.4,901.6c-1.7-0.3-3.4-0.5-5.1-0.5c-2.3,0-4.3,0.6-6.2,1.8
	c-1.9,1.2-3.3,2.8-4.4,5c-1.1,2.1-1.6,4.5-1.6,7.2c0,4.4,1.6,6.6,4.9,6.6c1.3,0,2.7-0.6,4.1-1.8c1.5-1.2,2.8-2.9,4.1-5
	c1.3-2.1,2.2-4.3,2.7-6.5L277.4,901.6z"/>
<path class="st1" d="M287.5,899.8h2.2l-1.2,6.6h0.1c3.1-4.8,6.5-7.2,10.2-7.2c2.1,0,3.6,0.5,4.6,1.5c1,1,1.5,2.6,1.5,4.7
	c0,0.5-0.1,1.1-0.2,1.8c-0.1,0.7-1.3,6-3.4,15.7H299l2.9-13.3c0.4-2,0.6-3.3,0.6-3.9c0-3.1-1.4-4.7-4.2-4.7c-1.2,0-2.7,0.5-4.3,1.6
	c-1.6,1.1-3,2.4-4.3,4.1c-1.3,1.7-2.1,3.5-2.5,5.4l-2.4,10.8h-2.2l3.8-16.8C287,903.7,287.3,901.5,287.5,899.8z"/>
<path class="st1" d="M325.1,923c0.1-1.8,0.4-4.3,1-7.4H326c-1.5,2.7-3,4.7-4.6,6c-1.6,1.3-3.3,2-5.2,2c-2.1,0-3.8-0.7-4.9-2.2
	c-1.2-1.4-1.7-3.5-1.7-6.2c0-3,0.6-5.8,1.9-8.2c1.3-2.5,3.1-4.4,5.3-5.8c2.3-1.4,4.7-2.1,7.4-2.1c1.5,0,3.2,0.2,5.3,0.7l2.5-11.3
	h2.2l-6,27c-0.1,0.5-0.3,1.7-0.5,3.5c-0.2,1.8-0.3,3.1-0.3,3.9H325.1z M329,901.9c-1.7-0.5-3.4-0.8-5.1-0.8c-2.2,0-4.2,0.6-6.1,1.8
	c-1.9,1.2-3.3,2.8-4.4,4.9c-1.1,2.1-1.6,4.5-1.6,7.1c0,2.3,0.4,4,1.2,5.1c0.8,1.1,2,1.6,3.7,1.6c1.3,0,2.7-0.6,4.2-1.9
	c1.6-1.3,2.9-2.9,4.2-5c1.2-2.1,2.1-4.2,2.6-6.4L329,901.9z"/>
<path class="st1" d="M352.7,899.8h2.2l-2.9,13.3c-0.4,2-0.6,3.3-0.6,3.9c0,3.1,1.4,4.7,4.2,4.7c1.3,0,2.8-0.6,4.4-1.7
	c1.6-1.1,3-2.6,4.3-4.4c1.3-1.8,2-3.5,2.4-5l2.4-10.8h2.2l-3.8,16.8c-0.6,2.6-0.9,4.7-1.1,6.5h-2.2l1.2-6.6h-0.1
	c-3.1,4.8-6.5,7.2-10.2,7.2c-4,0-6-2.1-6-6.4c0-0.3,0.1-0.8,0.2-1.5C349.4,914.9,350.5,909.6,352.7,899.8z"/>
<path class="st1" d="M378.8,899.8h2.2l-1.2,6.6h0.1c3.1-4.8,6.5-7.2,10.2-7.2c2.1,0,3.6,0.5,4.6,1.5c1,1,1.5,2.6,1.5,4.7
	c0,0.5-0.1,1.1-0.2,1.8c-0.1,0.7-1.3,6-3.4,15.7h-2.2l2.9-13.3c0.4-2,0.6-3.3,0.6-3.9c0-3.1-1.4-4.7-4.2-4.7c-1.2,0-2.7,0.5-4.3,1.6
	c-1.6,1.1-3,2.4-4.3,4.1c-1.3,1.7-2.1,3.5-2.5,5.4l-2.4,10.8H374l3.8-16.8C378.3,903.7,378.6,901.5,378.8,899.8z"/>
<path class="st1" d="M416.4,923c0.1-1.7,0.4-4.2,1-7.4h-0.1c-1.5,2.6-3,4.6-4.6,6c-1.6,1.4-3.3,2.1-5.2,2.1c-2.2,0-3.8-0.7-5-2.2
	s-1.7-3.5-1.7-6.1c0-3,0.6-5.8,1.9-8.2c1.3-2.5,3.1-4.4,5.3-5.8c2.3-1.4,4.7-2.1,7.5-2.1c2.1,0,4.5,0.3,7.4,0.8l-3.2,14.6
	c-0.2,1.1-0.5,2.6-0.7,4.3c-0.2,1.7-0.4,3.1-0.4,4H416.4z M420.4,901.6c-1.7-0.3-3.4-0.5-5.1-0.5c-2.3,0-4.3,0.6-6.2,1.8
	c-1.9,1.2-3.3,2.8-4.4,5c-1.1,2.1-1.6,4.5-1.6,7.2c0,4.4,1.6,6.6,4.9,6.6c1.3,0,2.7-0.6,4.1-1.8c1.5-1.2,2.8-2.9,4.1-5
	c1.3-2.1,2.2-4.3,2.7-6.5L420.4,901.6z"/>
<path class="st1" d="M425.4,919.8c0.8,0.6,1.7,1,2.8,1.4c1,0.3,2.1,0.5,3.1,0.5c1.9,0,3.3-0.4,4.3-1.1c1-0.7,1.5-1.8,1.5-3.3
	c0-1-0.3-1.8-0.9-2.5c-0.6-0.7-1.6-1.5-3.2-2.4c-1.9-1.1-3.1-2.1-3.9-3c-0.7-0.9-1.1-2-1.1-3.4c0-1.9,0.7-3.6,2.2-4.8
	c1.5-1.3,3.4-1.9,5.7-1.9c0.8,0,1.8,0.1,2.9,0.3s2,0.5,2.8,0.9l-0.5,2.2c-1.6-1-3.4-1.5-5.4-1.5c-1.6,0-2.9,0.4-3.9,1.3
	c-1,0.8-1.5,2-1.5,3.3c0,1.1,0.3,2,0.8,2.6c0.6,0.7,1.6,1.5,3.1,2.3c1.8,1,3.1,2,3.9,3c0.8,1,1.2,2.1,1.2,3.3c0,2-0.7,3.6-2.2,4.8
	c-1.5,1.2-3.5,1.8-6,1.8c-2.3,0-4.4-0.5-6.2-1.6L425.4,919.8z"/>
<path class="st1" d="M452.3,888.6h2.2l-3.9,17.7h0.1c3-4.7,6.4-7.1,10.1-7.1c4,0,6,2.1,6,6.4c0,0.5-0.2,1.9-0.7,4.4l-2.9,13h-2.2
	l2.9-13.3c0.4-2,0.6-3.3,0.6-3.9c0-3.1-1.4-4.7-4.2-4.7c-1.2,0-2.7,0.5-4.3,1.6c-1.6,1.1-3,2.4-4.3,4.1c-1.3,1.7-2.1,3.5-2.5,5.4
	l-2.4,10.8h-2.2L452.3,888.6z"/>
<path class="st1" d="M486.9,923c0.1-1.7,0.4-4.2,1-7.4h-0.1c-1.5,2.6-3,4.6-4.6,6c-1.6,1.4-3.3,2.1-5.2,2.1c-2.2,0-3.8-0.7-5-2.2
	s-1.7-3.5-1.7-6.1c0-3,0.6-5.8,1.9-8.2c1.3-2.5,3.1-4.4,5.3-5.8c2.3-1.4,4.7-2.1,7.5-2.1c2.1,0,4.5,0.3,7.4,0.8l-3.2,14.6
	c-0.2,1.1-0.5,2.6-0.7,4.3c-0.2,1.7-0.4,3.1-0.4,4H486.9z M490.9,901.6c-1.7-0.3-3.4-0.5-5.1-0.5c-2.3,0-4.3,0.6-6.2,1.8
	c-1.9,1.2-3.3,2.8-4.4,5c-1.1,2.1-1.6,4.5-1.6,7.2c0,4.4,1.6,6.6,4.9,6.6c1.3,0,2.7-0.6,4.1-1.8c1.5-1.2,2.8-2.9,4.1-5
	c1.3-2.1,2.2-4.3,2.7-6.5L490.9,901.6z"/>
<path class="st1" d="M501,899.8h2.2l-1.2,6.6h0.1c3.1-4.8,6.4-7.2,9.7-7.2c1.9,0,3.3,0.6,4.2,1.7c0.9,1.1,1.3,3,1.3,5.5
	c1.5-2.3,3.1-4.1,4.8-5.3c1.7-1.2,3.4-1.8,5.1-1.8c3.6,0,5.4,2.1,5.4,6.2c0,1-0.2,2.5-0.7,4.6l-2.9,13h-2.2l2.9-13.3
	c0.4-2.1,0.6-3.5,0.6-4.2c0-2.9-1.2-4.3-3.7-4.3c-1.3,0-2.6,0.5-4.1,1.6c-1.5,1.1-2.9,2.5-4.1,4.3c-1.2,1.8-2,3.4-2.4,5l-2.4,10.9
	h-2.2l2.9-13.3c0.4-1.9,0.6-3.2,0.6-3.9c0-1.5-0.3-2.7-0.8-3.5c-0.5-0.8-1.5-1.2-2.8-1.2c-1.3,0-2.7,0.6-4.2,1.8
	c-1.5,1.2-2.9,2.6-4.1,4.4c-1.2,1.7-1.9,3.4-2.3,5l-2.4,10.8h-2.2l3.8-16.8C500.5,903.7,500.9,901.5,501,899.8z"/>
<path class="st1" d="M539.6,914.1c0,2.4,0.6,4.2,1.9,5.6c1.3,1.4,3.1,2,5.4,2c2,0,4.3-0.6,6.7-1.9l-0.4,2.2
	c-2.1,1.1-4.3,1.6-6.6,1.6c-2.9,0-5.2-0.9-6.8-2.6c-1.6-1.7-2.4-4.1-2.4-7.2c0-2.7,0.6-5.2,1.8-7.4c1.2-2.2,2.8-4,4.8-5.3
	c2-1.3,4.1-1.9,6.3-1.9c2.1,0,3.8,0.5,5,1.5c1.3,1,1.9,2.4,1.9,4.1c0,2.7-1.4,4.6-4.1,5.9c-2.7,1.2-7.2,1.9-13.3,2L539.6,914.1z
	 M539.9,910.7c5.1,0,8.8-0.4,11.2-1.3c2.4-0.9,3.6-2.4,3.6-4.4c0-2.6-1.7-3.9-5-3.9c-2.4,0-4.4,0.9-6.3,2.7
	C541.7,905.6,540.5,907.9,539.9,910.7z"/>
<path class="st1" d="M575.6,923c0.1-1.8,0.4-4.3,1-7.4h-0.1c-1.5,2.7-3,4.7-4.6,6c-1.6,1.3-3.3,2-5.2,2c-2.1,0-3.8-0.7-4.9-2.2
	c-1.2-1.4-1.7-3.5-1.7-6.2c0-3,0.6-5.8,1.9-8.2c1.3-2.5,3.1-4.4,5.3-5.8c2.3-1.4,4.7-2.1,7.4-2.1c1.5,0,3.2,0.2,5.3,0.7l2.5-11.3
	h2.2l-6,27c-0.1,0.5-0.3,1.7-0.5,3.5c-0.2,1.8-0.3,3.1-0.3,3.9H575.6z M579.5,901.9c-1.7-0.5-3.4-0.8-5.1-0.8
	c-2.2,0-4.2,0.6-6.1,1.8c-1.9,1.2-3.3,2.8-4.4,4.9c-1.1,2.1-1.6,4.5-1.6,7.1c0,2.3,0.4,4,1.2,5.1c0.8,1.1,2,1.6,3.7,1.6
	c1.3,0,2.7-0.6,4.2-1.9c1.6-1.3,2.9-2.9,4.2-5c1.2-2.1,2.1-4.2,2.6-6.4L579.5,901.9z"/>
<path class="st1" d="M605.9,888.6h2.2l-3.9,17.7h0.1c3-4.7,6.4-7.1,10.1-7.1c4,0,6,2.1,6,6.4c0,0.5-0.2,1.9-0.7,4.4l-2.9,13h-2.2
	l2.9-13.3c0.4-2,0.6-3.3,0.6-3.9c0-3.1-1.4-4.7-4.2-4.7c-1.2,0-2.7,0.5-4.3,1.6c-1.6,1.1-3,2.4-4.3,4.1c-1.3,1.7-2.1,3.5-2.5,5.4
	l-2.4,10.8h-2.2L605.9,888.6z"/>
<path class="st1" d="M633.5,923.6c-2.7,0-4.7-0.8-6.3-2.4c-1.5-1.6-2.3-3.8-2.3-6.6c0-2.8,0.6-5.4,1.7-7.8c1.1-2.4,2.7-4.3,4.7-5.6
	c2-1.3,4.1-2,6.5-2c2.7,0,4.8,0.8,6.3,2.4c1.5,1.6,2.2,3.8,2.2,6.5c0,2.9-0.6,5.5-1.7,7.9c-1.1,2.4-2.6,4.2-4.6,5.6
	C638.1,922.9,635.9,923.6,633.5,923.6z M633.8,921.7c1.9,0,3.6-0.6,5.2-1.7c1.6-1.1,2.8-2.7,3.8-4.8c0.9-2,1.4-4.3,1.4-6.8
	c0-2.4-0.6-4.2-1.7-5.4c-1.1-1.2-2.7-1.8-4.8-1.8c-1.8,0-3.6,0.6-5.2,1.7c-1.6,1.1-2.9,2.7-3.8,4.8c-0.9,2.1-1.4,4.3-1.4,6.8
	c0,2.3,0.6,4.1,1.7,5.3S631.8,921.7,633.8,921.7z"/>
<path class="st1" d="M654.6,899.8h2.2l-2.9,13.3c-0.4,2-0.6,3.3-0.6,3.9c0,3.1,1.4,4.7,4.2,4.7c1.3,0,2.8-0.6,4.4-1.7
	c1.6-1.1,3-2.6,4.3-4.4c1.3-1.8,2-3.5,2.4-5l2.4-10.8h2.2l-3.8,16.8c-0.6,2.6-0.9,4.7-1.1,6.5h-2.2l1.2-6.6h-0.1
	c-3.1,4.8-6.5,7.2-10.2,7.2c-4,0-6-2.1-6-6.4c0-0.3,0.1-0.8,0.2-1.5C651.3,914.9,652.4,909.6,654.6,899.8z"/>
<path class="st1" d="M675.7,919.8c0.8,0.6,1.7,1,2.8,1.4c1,0.3,2.1,0.5,3.1,0.5c1.9,0,3.3-0.4,4.3-1.1c1-0.7,1.5-1.8,1.5-3.3
	c0-1-0.3-1.8-0.9-2.5c-0.6-0.7-1.6-1.5-3.2-2.4c-1.9-1.1-3.1-2.1-3.9-3c-0.7-0.9-1.1-2-1.1-3.4c0-1.9,0.7-3.6,2.2-4.8
	c1.5-1.3,3.4-1.9,5.7-1.9c0.8,0,1.8,0.1,2.9,0.3s2,0.5,2.8,0.9l-0.5,2.2c-1.6-1-3.4-1.5-5.4-1.5c-1.6,0-2.9,0.4-3.9,1.3
	c-1,0.8-1.5,2-1.5,3.3c0,1.1,0.3,2,0.8,2.6c0.6,0.7,1.6,1.5,3.1,2.3c1.8,1,3.1,2,3.9,3c0.8,1,1.2,2.1,1.2,3.3c0,2-0.7,3.6-2.2,4.8
	c-1.5,1.2-3.5,1.8-6,1.8c-2.3,0-4.4-0.5-6.2-1.6L675.7,919.8z"/>
<path class="st1" d="M697.7,914.1c0,2.4,0.6,4.2,1.9,5.6c1.3,1.4,3.1,2,5.4,2c2,0,4.3-0.6,6.7-1.9l-0.4,2.2
	c-2.1,1.1-4.3,1.6-6.6,1.6c-2.9,0-5.2-0.9-6.8-2.6c-1.6-1.7-2.4-4.1-2.4-7.2c0-2.7,0.6-5.2,1.8-7.4c1.2-2.2,2.8-4,4.8-5.3
	c2-1.3,4.1-1.9,6.3-1.9c2.1,0,3.8,0.5,5,1.5c1.3,1,1.9,2.4,1.9,4.1c0,2.7-1.4,4.6-4.1,5.9c-2.7,1.2-7.2,1.9-13.3,2L697.7,914.1z
	 M698,910.7c5.1,0,8.8-0.4,11.2-1.3c2.4-0.9,3.6-2.4,3.6-4.4c0-2.6-1.7-3.9-5-3.9c-2.4,0-4.4,0.9-6.3,2.7
	C699.8,905.6,698.6,907.9,698,910.7z"/>
<path class="st1" d="M735.2,899.8h2.2c-0.1,1.1-0.2,2.5-0.5,4.1c-0.2,1.6-0.4,2.7-0.5,3.3h0.1c1.5-2.6,3-4.6,4.7-6
	c1.6-1.4,3.4-2,5.2-2c2.2,0,3.8,0.7,4.9,2.1c1.1,1.4,1.7,3.5,1.7,6.2c0,3-0.6,5.8-1.9,8.2c-1.3,2.4-3.1,4.4-5.3,5.8
	s-4.7,2.1-7.4,2.1c-1.7,0-3.4-0.3-5.1-0.9l-2.5,11.3h-2.2l5.9-26.8c0.1-0.6,0.3-1.8,0.5-3.5C735.1,901.8,735.2,900.6,735.2,899.8z
	 M733.6,920.7c1.4,0.7,3.1,1,5.1,1c2.2,0,4.3-0.6,6.1-1.8c1.9-1.2,3.3-2.8,4.4-5c1-2.1,1.6-4.5,1.6-7c0-2.2-0.4-3.9-1.2-5.1
	s-2-1.7-3.7-1.7c-1.2,0-2.6,0.6-4.2,1.9c-1.6,1.3-2.9,2.9-4.2,5c-1.2,2.1-2.1,4.2-2.5,6.4L733.6,920.7z"/>
<path class="st1" d="M763.7,888.6h2.2l-6.1,27.7c-0.4,1.8-0.6,3.1-0.6,3.9c0,0.9,0.5,1.4,1.5,1.4c0.7,0,1.4-0.1,2-0.4l-0.4,1.7
	c-0.8,0.3-1.6,0.5-2.3,0.5c-2,0-3-1-3-3.1c0-0.7,0.1-1.6,0.3-2.6C757.5,916.7,759.6,907,763.7,888.6z"/>
<path class="st1" d="M782.7,923c0.1-1.7,0.4-4.2,1-7.4h-0.1c-1.5,2.6-3,4.6-4.6,6c-1.6,1.4-3.3,2.1-5.2,2.1c-2.2,0-3.8-0.7-5-2.2
	c-1.2-1.4-1.7-3.5-1.7-6.1c0-3,0.6-5.8,1.9-8.2c1.3-2.5,3.1-4.4,5.3-5.8c2.3-1.4,4.7-2.1,7.5-2.1c2.1,0,4.5,0.3,7.4,0.8l-3.2,14.6
	c-0.2,1.1-0.5,2.6-0.7,4.3c-0.2,1.7-0.4,3.1-0.4,4H782.7z M786.7,901.6c-1.7-0.3-3.4-0.5-5.1-0.5c-2.3,0-4.3,0.6-6.2,1.8
	c-1.9,1.2-3.3,2.8-4.4,5c-1.1,2.1-1.6,4.5-1.6,7.2c0,4.4,1.6,6.6,4.9,6.6c1.3,0,2.7-0.6,4.1-1.8c1.5-1.2,2.8-2.9,4.1-5
	c1.3-2.1,2.2-4.3,2.7-6.5L786.7,901.6z"/>
<path class="st1" d="M796.8,899.8h2.2l-1.2,6.6h0.1c3.1-4.8,6.5-7.2,10.2-7.2c2.1,0,3.6,0.5,4.6,1.5c1,1,1.5,2.6,1.5,4.7
	c0,0.5-0.1,1.1-0.2,1.8c-0.1,0.7-1.3,6-3.4,15.7h-2.2l2.9-13.3c0.4-2,0.6-3.3,0.6-3.9c0-3.1-1.4-4.7-4.2-4.7c-1.2,0-2.7,0.5-4.3,1.6
	c-1.6,1.1-3,2.4-4.3,4.1c-1.3,1.7-2.1,3.5-2.5,5.4l-2.4,10.8H792l3.8-16.8C796.3,903.7,796.6,901.5,796.8,899.8z"/>
<path class="st1" d="M823.6,901.7h-4.4l0.5-1.9h4.4l1.4-6l2.4-0.7l-1.5,6.7h6.5l-0.5,1.9h-6.4l-3.3,14.6c-0.3,1.4-0.5,2.5-0.5,3.1
	c0,0.7,0.2,1.3,0.5,1.6c0.3,0.4,0.9,0.6,1.6,0.6c0.7,0,2-0.4,3.8-1.2l-0.5,2c-0.6,0.3-1.3,0.6-2,0.8c-0.8,0.2-1.4,0.3-1.8,0.3
	c-2.6,0-3.9-1.3-3.9-3.9c0-1,0.2-2.1,0.5-3.3L823.6,901.7z"/>
<path class="st1" d="M848.9,914.1c0,2.4,0.6,4.2,1.9,5.6c1.3,1.4,3.1,2,5.4,2c2,0,4.3-0.6,6.7-1.9l-0.4,2.2
	c-2.1,1.1-4.3,1.6-6.6,1.6c-2.9,0-5.2-0.9-6.8-2.6s-2.4-4.1-2.4-7.2c0-2.7,0.6-5.2,1.8-7.4c1.2-2.2,2.8-4,4.8-5.3
	c2-1.3,4.1-1.9,6.3-1.9c2.1,0,3.8,0.5,5,1.5c1.3,1,1.9,2.4,1.9,4.1c0,2.7-1.4,4.6-4.1,5.9c-2.7,1.2-7.2,1.9-13.3,2L848.9,914.1z
	 M849.3,910.7c5.1,0,8.8-0.4,11.2-1.3c2.4-0.9,3.6-2.4,3.6-4.4c0-2.6-1.7-3.9-5-3.9c-2.4,0-4.4,0.9-6.3,2.7
	C851.1,905.6,849.9,907.9,849.3,910.7z"/>
<path class="st1" d="M873.6,899.8h2.2l-1.2,6.6h0.1c3.1-4.8,6.5-7.2,10.2-7.2c2.1,0,3.6,0.5,4.6,1.5c1,1,1.5,2.6,1.5,4.7
	c0,0.5-0.1,1.1-0.2,1.8c-0.1,0.7-1.3,6-3.4,15.7h-2.2l2.9-13.3c0.4-2,0.6-3.3,0.6-3.9c0-3.1-1.4-4.7-4.2-4.7c-1.2,0-2.7,0.5-4.3,1.6
	c-1.6,1.1-3,2.4-4.3,4.1c-1.3,1.7-2.1,3.5-2.5,5.4L871,923h-2.2l3.8-16.8C873.1,903.7,873.4,901.5,873.6,899.8z"/>
<path class="st1" d="M900.4,901.7H896l0.5-1.9h4.4l1.4-6l2.4-0.7l-1.5,6.7h6.5l-0.5,1.9h-6.4l-3.3,14.6c-0.3,1.4-0.5,2.5-0.5,3.1
	c0,0.7,0.2,1.3,0.5,1.6c0.3,0.4,0.9,0.6,1.6,0.6c0.7,0,2-0.4,3.8-1.2l-0.5,2c-0.6,0.3-1.3,0.6-2,0.8c-0.8,0.2-1.4,0.3-1.8,0.3
	c-2.6,0-3.9-1.3-3.9-3.9c0-1,0.2-2.1,0.5-3.3L900.4,901.7z"/>
<path class="st1" d="M917.1,888.6h2.2l-3.9,17.7h0.1c3-4.7,6.4-7.1,10.1-7.1c4,0,6,2.1,6,6.4c0,0.5-0.2,1.9-0.7,4.4l-2.9,13h-2.2
	l2.9-13.3c0.4-2,0.6-3.3,0.6-3.9c0-3.1-1.4-4.7-4.2-4.7c-1.2,0-2.7,0.5-4.3,1.6c-1.6,1.1-3,2.4-4.3,4.1c-1.3,1.7-2.1,3.5-2.5,5.4
	l-2.4,10.8h-2.2L917.1,888.6z"/>
<path class="st1" d="M940.6,899.8h2.2l-2.9,13.3c-0.4,2-0.6,3.3-0.6,3.9c0,3.1,1.4,4.7,4.2,4.7c1.3,0,2.8-0.6,4.4-1.7
	c1.6-1.1,3-2.6,4.3-4.4c1.3-1.8,2-3.5,2.4-5l2.4-10.8h2.2l-3.8,16.8c-0.6,2.6-0.9,4.7-1.1,6.5h-2.2l1.2-6.6h-0.1
	c-3.1,4.8-6.5,7.2-10.2,7.2c-4,0-6-2.1-6-6.4c0-0.3,0.1-0.8,0.2-1.5C937.3,914.9,938.4,909.6,940.6,899.8z"/>
<path class="st1" d="M961.6,919.8c0.8,0.6,1.7,1,2.8,1.4c1,0.3,2.1,0.5,3.1,0.5c1.9,0,3.3-0.4,4.3-1.1c1-0.7,1.5-1.8,1.5-3.3
	c0-1-0.3-1.8-0.9-2.5c-0.6-0.7-1.6-1.5-3.2-2.4c-1.9-1.1-3.1-2.1-3.9-3c-0.7-0.9-1.1-2-1.1-3.4c0-1.9,0.7-3.6,2.2-4.8
	c1.5-1.3,3.4-1.9,5.7-1.9c0.8,0,1.8,0.1,2.9,0.3s2,0.5,2.8,0.9l-0.5,2.2c-1.6-1-3.4-1.5-5.4-1.5c-1.6,0-2.9,0.4-3.9,1.3
	c-1,0.8-1.5,2-1.5,3.3c0,1.1,0.3,2,0.8,2.6c0.6,0.7,1.6,1.5,3.1,2.3c1.8,1,3.1,2,3.9,3c0.8,1,1.2,2.1,1.2,3.3c0,2-0.7,3.6-2.2,4.8
	c-1.5,1.2-3.5,1.8-6,1.8c-2.3,0-4.4-0.5-6.2-1.6L961.6,919.8z"/>
<path class="st1" d="M985.7,899.8h2.2l-3.7,16.5c-0.4,1.8-0.6,3.1-0.6,3.9c0,0.9,0.5,1.4,1.5,1.4c0.7,0,1.4-0.1,2-0.4l-0.4,1.7
	c-0.8,0.3-1.6,0.5-2.3,0.5c-2,0-3-1-3-3.1c0-0.7,0.1-1.4,0.2-2.1C981.7,917.5,983.1,911.4,985.7,899.8z M988.5,893.9
	c-0.5,0-0.9-0.2-1.3-0.5c-0.4-0.3-0.5-0.8-0.5-1.3c0-0.5,0.2-0.9,0.5-1.2c0.4-0.3,0.8-0.5,1.3-0.5c0.5,0,0.9,0.2,1.3,0.5
	c0.4,0.3,0.6,0.7,0.6,1.2c0,0.5-0.2,0.9-0.5,1.2C989.4,893.8,989,893.9,988.5,893.9z"/>
<path class="st1" d="M1007.1,923c0.1-1.7,0.4-4.2,1-7.4h-0.1c-1.5,2.6-3,4.6-4.6,6c-1.6,1.4-3.3,2.1-5.2,2.1c-2.2,0-3.8-0.7-5-2.2
	c-1.2-1.4-1.7-3.5-1.7-6.1c0-3,0.6-5.8,1.9-8.2c1.3-2.5,3.1-4.4,5.3-5.8c2.3-1.4,4.7-2.1,7.5-2.1c2.1,0,4.5,0.3,7.4,0.8l-3.2,14.6
	c-0.2,1.1-0.5,2.6-0.7,4.3c-0.2,1.7-0.4,3.1-0.4,4H1007.1z M1011.1,901.6c-1.7-0.3-3.4-0.5-5.1-0.5c-2.3,0-4.3,0.6-6.2,1.8
	c-1.9,1.2-3.3,2.8-4.4,5c-1.1,2.1-1.6,4.5-1.6,7.2c0,4.4,1.6,6.6,4.9,6.6c1.3,0,2.7-0.6,4.1-1.8c1.5-1.2,2.8-2.9,4.1-5
	c1.3-2.1,2.2-4.3,2.7-6.5L1011.1,901.6z"/>
<path class="st1" d="M1016.2,919.8c0.8,0.6,1.7,1,2.8,1.4c1,0.3,2.1,0.5,3.1,0.5c1.9,0,3.3-0.4,4.3-1.1c1-0.7,1.5-1.8,1.5-3.3
	c0-1-0.3-1.8-0.9-2.5c-0.6-0.7-1.6-1.5-3.2-2.4c-1.9-1.1-3.1-2.1-3.9-3c-0.7-0.9-1.1-2-1.1-3.4c0-1.9,0.7-3.6,2.2-4.8
	c1.5-1.3,3.4-1.9,5.7-1.9c0.8,0,1.8,0.1,2.9,0.3s2,0.5,2.8,0.9l-0.5,2.2c-1.6-1-3.4-1.5-5.4-1.5c-1.6,0-2.9,0.4-3.9,1.3
	c-1,0.8-1.5,2-1.5,3.3c0,1.1,0.3,2,0.8,2.6c0.6,0.7,1.6,1.5,3.1,2.3c1.8,1,3.1,2,3.9,3c0.8,1,1.2,2.1,1.2,3.3c0,2-0.7,3.6-2.2,4.8
	c-1.5,1.2-3.5,1.8-6,1.8c-2.3,0-4.4-0.5-6.2-1.6L1016.2,919.8z"/>
<path class="st1" d="M1040.7,901.7h-4.4l0.5-1.9h4.4l1.4-6l2.4-0.7l-1.5,6.7h6.5l-0.5,1.9h-6.4l-3.3,14.6c-0.3,1.4-0.5,2.5-0.5,3.1
	c0,0.7,0.2,1.3,0.5,1.6c0.3,0.4,0.9,0.6,1.6,0.6c0.7,0,2-0.4,3.8-1.2l-0.5,2c-0.6,0.3-1.3,0.6-2,0.8c-0.8,0.2-1.4,0.3-1.8,0.3
	c-2.6,0-3.9-1.3-3.9-3.9c0-1,0.2-2.1,0.5-3.3L1040.7,901.7z"/>
<rect x="224.3" y="749.6" class="st1" width="831.4" height="1.9"/>
</svg>
